<?xml version="1.0" standalone="no"?>
<!DOCTYPE svg PUBLIC "-//W3C//DTD SVG 20010904//EN"
 "http://www.w3.org/TR/2001/REC-SVG-20010904/DTD/svg10.dtd">
<svg version="1.0" xmlns="http://www.w3.org/2000/svg"
 width="960.000000pt" height="678.000000pt" viewBox="0 0 960.000000 678.000000"
 preserveAspectRatio="xMidYMid meet">
<metadata>
Created by potrace 1.16, written by Peter Selinger 2001-2019
</metadata>
<g transform="translate(0.000000,678.000000) scale(0.100000,-0.100000)"
fill="#000000" stroke="none">
<path d="M4223 3570 c-23 -9 -73 -76 -73 -97 0 -19 -8 -16 -42 12 -16 14 -36
25 -44 25 -20 0 -63 -47 -70 -76 -8 -30 0 -40 46 -64 l39 -20 -29 -47 c-17
-26 -30 -53 -30 -61 0 -10 -6 -12 -17 -7 -64 28 -132 6 -202 -64 l-38 -38 -29
24 c-48 38 -181 85 -233 82 -25 -1 -67 1 -92 5 -88 15 -220 -29 -293 -97 l-38
-37 -42 24 c-56 32 -87 38 -119 21 -26 -13 -27 -13 -47 28 -10 23 -29 54 -41
69 l-22 27 41 45 c23 25 42 52 42 59 0 24 -24 45 -63 56 -36 9 -39 8 -57 -21
l-18 -30 -16 30 c-36 70 -126 96 -177 51 -19 -16 -20 -19 -6 -15 35 11 38 -6
5 -22 -18 -10 -34 -25 -36 -35 -3 -17 -2 -17 17 2 22 22 47 26 70 12 11 -7 11
-17 1 -59 -15 -59 -10 -77 28 -99 l29 -17 -24 -34 c-40 -59 -25 -105 45 -141
19 -10 23 -9 34 14 l11 25 18 -30 c20 -33 73 -64 95 -56 8 3 19 -6 28 -23 20
-38 90 -99 123 -107 32 -8 73 -50 73 -74 0 -14 -11 -18 -60 -22 -71 -5 -111
-36 -133 -102 -13 -40 -15 -41 -72 -48 -32 -4 -67 -16 -78 -25 -57 -51 -84
-201 -68 -377 l11 -111 -107 -107 c-59 -60 -115 -108 -123 -108 -9 0 -26 7
-39 16 -21 15 -25 15 -50 -4 l-27 -20 -192 147 -191 146 -1 45 c0 25 -4 51 -8
57 -4 7 -68 53 -142 103 -74 50 -140 102 -148 116 -7 14 -12 27 -10 28 2 1 20
12 40 25 45 27 91 78 120 134 34 66 32 184 -5 256 -15 30 -21 49 -13 42 25
-21 26 4 0 58 l-24 53 30 46 c16 25 30 51 30 57 0 21 -25 35 -74 41 -25 4 -46
9 -46 12 0 3 18 24 40 48 53 58 52 74 -3 74 -23 0 -53 -7 -65 -16 -30 -21 -48
-6 -57 47 -4 21 -10 39 -15 39 -9 0 -59 -61 -78 -95 -9 -16 -12 -5 -12 60 l-1
80 -24 -69 c-30 -86 -41 -98 -55 -62 -5 15 -10 35 -10 43 0 38 -15 -3 -24 -68
l-11 -70 -54 75 c-53 75 -77 94 -94 77 -13 -13 10 -115 34 -144 50 -64 -13
-60 -103 6 -40 30 -42 17 -7 -38 17 -26 26 -52 22 -56 -5 -5 -35 -14 -67 -20
-32 -6 -70 -15 -85 -21 l-26 -10 24 -19 c13 -11 39 -19 59 -19 43 0 36 -11
-35 -49 -25 -14 -48 -32 -51 -38 -6 -19 115 -17 152 2 37 20 40 16 11 -17 -20
-23 -28 -26 -48 -19 -38 15 -59 -7 -65 -67 -4 -44 -1 -54 20 -75 14 -14 27
-36 30 -49 4 -23 2 -24 -43 -25 -79 -1 -129 -43 -141 -118 -3 -16 -14 -22 -65
-28 -75 -10 -104 -38 -129 -122 -16 -58 -21 -214 -9 -325 l7 -65 -82 -113 -81
-112 -49 0 c-55 0 -65 -14 -22 -32 15 -7 29 -13 30 -14 2 -1 -8 -23 -23 -49
-20 -34 -25 -49 -17 -57 9 -9 17 -7 32 7 21 19 23 17 20 -31 -2 -47 16 -50 39
-7 11 21 20 31 21 22 0 -9 7 -22 15 -29 13 -11 15 -8 14 16 0 16 -3 23 -6 15
-4 -10 -10 -5 -18 15 l-13 29 -16 -35 -17 -35 6 43 c6 47 4 49 -30 26 -30 -19
-32 -8 -5 26 30 38 25 57 -17 68 l-38 10 52 1 51 1 80 108 c44 59 87 113 96
121 14 12 16 10 16 -19 0 -26 -15 -48 -89 -128 l-90 -95 20 -40 c22 -42 37
-46 18 -4 -11 24 -7 31 62 106 72 78 74 79 80 53 4 -15 7 -52 8 -82 1 -61 27
-297 37 -336 8 -32 38 -43 136 -51 43 -3 77 -9 76 -12 -16 -33 -92 -187 -93
-189 -1 -1 -15 4 -31 13 -61 32 -146 12 -199 -46 -32 -36 -36 -45 -33 -87 3
-46 4 -48 62 -78 33 -18 67 -29 78 -26 34 9 52 49 50 114 -2 51 2 63 23 84 30
30 53 23 33 -9 -22 -35 -11 -70 28 -92 l34 -20 -28 -46 c-24 -37 -38 -48 -76
-59 -49 -14 -52 -17 -33 -40 39 -49 43 -47 106 49 33 50 62 100 66 110 5 16
12 17 53 10 51 -8 82 -18 82 -26 0 -3 -23 -32 -51 -64 -43 -49 -56 -59 -83
-59 -38 0 -86 -34 -137 -97 -18 -24 -35 -47 -37 -51 -1 -5 12 -26 29 -48 17
-21 37 -48 45 -58 13 -18 17 -19 63 -7 l50 13 33 -38 c29 -32 49 -82 28 -69
-4 2 -40 -9 -79 -26 -40 -17 -75 -28 -78 -25 -3 3 2 17 11 30 22 35 21 36 -26
36 -33 0 -39 3 -30 12 24 24 11 29 -19 7 -31 -22 -31 -23 -10 -30 12 -5 26
-20 31 -34 5 -14 15 -25 21 -25 7 0 9 -9 5 -24 -6 -24 -5 -24 101 20 58 24
111 43 117 41 13 -4 -48 -32 -157 -72 -78 -28 -102 -50 -110 -102 -1 -10 -15
-30 -30 -45 -16 -16 -29 -43 -33 -67 -4 -28 -12 -41 -23 -42 -9 0 -23 -2 -31
-3 -8 -2 -38 -7 -66 -10 -47 -7 -51 -6 -62 19 -14 31 -15 38 -4 31 5 -3 21 7
38 21 16 14 49 39 74 56 25 17 51 37 59 45 8 8 25 12 38 9 19 -3 21 -2 11 10
-6 8 -17 12 -24 9 -7 -3 -15 3 -17 12 -4 13 -5 13 -6 2 -2 -14 -84 -80 -155
-126 -17 -11 -43 -17 -63 -15 -39 3 -52 -17 -36 -60 11 -27 10 -28 -31 -34
-22 -3 -54 -8 -71 -11 -23 -4 -26 -3 -15 5 8 6 31 11 50 12 29 0 32 2 15 10
-16 7 -14 8 11 5 25 -3 31 -1 27 13 -6 22 -58 51 -83 46 -12 -2 -18 0 -15 6 4
5 11 7 16 4 5 -4 9 -4 9 -1 0 3 -13 12 -29 20 -23 13 -31 13 -46 2 -10 -7 -15
-18 -11 -24 7 -11 -1 -11 -69 4 l-30 6 19 -21 c20 -22 20 -22 0 -15 -10 4 -29
18 -40 30 -12 13 -26 24 -32 24 -12 0 -130 130 -131 145 -1 6 3 10 9 10 5 0
15 9 23 19 10 13 21 17 37 13 19 -5 15 3 -22 41 -60 61 -82 105 -68 132 6 11
16 20 22 20 6 0 9 2 6 5 -14 14 -38 -11 -52 -55 -11 -35 -16 -87 -16 -179 l0
-131 36 21 c40 22 30 27 129 -55 68 -56 105 -93 105 -106 0 -5 -8 -11 -17 -13
-13 -3 -11 -5 7 -7 17 -1 4 -7 -37 -19 -34 -10 -74 -29 -90 -43 -15 -14 -44
-40 -63 -58 l-35 -32 35 7 c97 18 94 18 107 -9 6 -14 7 -24 3 -21 -5 3 -14 -4
-20 -15 -6 -11 -8 -20 -5 -20 2 0 -9 -13 -25 -29 -17 -15 -30 -31 -30 -35 0
-3 36 -6 80 -6 76 0 83 2 105 28 13 15 25 33 25 40 0 7 4 11 8 8 5 -3 22 9 38
26 16 17 43 39 59 49 l30 19 -35 1 c-19 1 3 7 50 14 129 20 128 20 183 -52
l47 -64 -26 -35 c-20 -25 -23 -34 -11 -34 8 0 23 12 32 27 l18 27 22 -26 c20
-23 30 -26 91 -27 l68 -1 -37 25 c-20 14 -37 30 -37 36 0 5 19 35 41 65 35 46
45 53 63 47 11 -5 40 -7 64 -7 34 1 42 -2 42 -16 0 -29 40 -150 49 -150 5 0
-2 30 -15 68 -29 83 -30 105 -3 142 18 24 21 38 17 90 l-4 61 52 37 c37 25 61
53 79 87 19 37 25 44 23 25 -3 -58 1 -70 26 -70 31 0 116 -76 150 -134 18 -30
37 -48 64 -59 21 -8 44 -22 51 -31 7 -9 17 -14 21 -11 10 6 101 -94 142 -157
17 -27 35 -48 39 -48 5 0 -5 21 -21 47 -17 26 -30 52 -30 58 0 6 -22 35 -50
65 -29 31 -46 58 -41 63 5 5 4 22 -2 40 -5 18 -11 37 -13 44 -2 7 -25 28 -53
48 -27 19 -56 51 -65 69 -33 69 -13 152 44 181 62 32 247 4 355 -53 70 -38
243 -213 280 -284 25 -48 31 -54 40 -40 8 13 11 5 17 -38 3 -30 12 -88 19
-128 l13 -72 346 1 345 0 102 123 c78 95 100 129 96 145 -3 12 -1 21 6 21 6 0
8 -8 4 -18 -5 -14 -2 -13 17 5 l22 21 -84 329 -84 328 49 55 c28 30 77 90 111
133 l61 79 45 -6 c25 -3 96 -9 158 -13 101 -5 115 -8 126 -27 7 -12 46 -79 86
-151 41 -71 116 -197 167 -279 51 -82 93 -152 93 -156 0 -4 -27 -15 -60 -25
-58 -18 -110 -55 -110 -79 0 -7 -77 -30 -182 -56 -101 -24 -194 -50 -206 -58
-30 -17 -92 -151 -92 -196 0 -47 30 -80 97 -107 32 -13 63 -30 69 -38 6 -8 16
-11 22 -7 6 4 25 0 41 -9 44 -22 56 -19 58 16 2 32 45 131 89 206 l24 42 69
-31 70 -30 -25 -27 c-25 -26 -94 -158 -94 -180 0 -8 184 -11 713 -11 l712 0
38 26 c21 14 68 39 104 55 63 28 279 98 350 114 35 7 36 5 13 -50 -4 -11 -13
-34 -19 -50 -9 -25 -21 -34 -59 -45 -25 -7 -41 -15 -34 -18 7 -2 26 1 42 7 28
9 30 8 31 -17 2 -25 2 -25 6 -4 4 20 9 23 31 17 68 -17 153 -26 241 -24 53 1
124 -2 158 -6 55 -7 62 -5 72 13 7 13 7 23 2 27 -5 3 -12 -4 -16 -15 -3 -11
-14 -20 -23 -20 -13 0 -14 2 -4 9 10 6 10 10 -2 20 -21 17 1 43 26 30 10 -5
18 -5 20 1 2 5 54 -7 117 -26 86 -26 117 -31 125 -23 8 9 8 10 -1 5 -9 -5 21
120 32 133 11 11 -3 -79 -13 -92 -14 -16 -7 -43 13 -49 6 -2 9 -6 8 -10 -1 -3
12 -6 30 -5 l32 2 84 233 c52 142 90 232 98 232 7 0 13 7 13 15 0 22 -27 18
-88 -10 -30 -14 -55 -25 -57 -25 -2 0 9 35 23 77 23 70 26 94 27 223 0 126 -3
154 -23 215 -67 199 -200 358 -374 446 -66 34 -68 34 -68 14 0 -8 5 -15 10
-15 6 0 10 -4 10 -9 0 -5 -35 9 -77 30 -106 53 -176 69 -304 69 -193 0 -344
-63 -479 -199 -130 -131 -192 -281 -194 -466 -1 -121 20 -213 74 -320 21 -41
36 -75 34 -75 -1 0 -165 69 -364 154 l-361 154 -200 -66 c-170 -57 -201 -65
-209 -52 -31 48 -230 551 -223 563 2 4 19 7 37 7 18 0 35 2 38 5 3 3 -1 36 -8
73 -7 37 -45 231 -84 431 l-71 364 21 51 c12 28 26 55 30 60 7 7 338 -160 526
-265 l51 -29 -13 -57 c-6 -32 -33 -102 -58 -156 l-47 -99 19 -31 c12 -22 26
-32 42 -32 19 0 33 17 79 102 33 59 64 104 75 107 10 2 15 9 11 15 -10 18 4
48 25 54 14 3 19 13 18 29 -1 14 49 113 124 248 119 212 127 230 142 315 19
106 20 145 5 145 -6 0 -40 -28 -76 -62 -60 -57 -73 -78 -146 -228 -86 -177
-164 -303 -183 -296 -6 2 -122 89 -258 193 -183 140 -246 193 -245 208 3 45
-4 54 -70 106 -58 45 -101 96 -89 103 129 82 187 169 188 284 0 29 5 70 12 91
11 35 16 39 46 39 44 0 106 42 140 95 19 30 33 41 48 39 43 -6 95 56 108 132
l7 39 18 -29 c26 -42 58 -67 76 -60 18 6 45 64 45 95 0 11 -11 28 -25 39 -22
18 -23 21 -9 33 16 13 15 48 -2 122 -6 26 -5 27 34 27 29 0 44 -5 51 -17 9
-15 10 -15 11 -3 0 21 -20 40 -42 40 -26 0 -22 18 5 22 l22 3 -24 14 c-13 7
-21 9 -17 3 3 -5 -1 -12 -9 -16 -8 -3 -15 -12 -15 -20 0 -7 -7 -17 -16 -20
-14 -5 -15 -16 -10 -64 11 -101 -28 -119 -91 -41 -29 36 -31 43 -21 72 11 33
55 87 71 87 6 0 5 -5 0 -12 -16 -20 -54 -128 -45 -128 4 0 16 25 27 55 10 31
25 60 32 67 11 9 12 13 1 21 -9 6 -8 7 4 3 10 -3 28 -1 40 4 20 8 19 9 -12 9
-19 0 -45 -4 -57 -9z m-1545 -104 c15 -8 37 -32 50 -54 27 -49 29 -69 2 -25
-22 36 -55 59 -65 43 -3 -5 3 -10 14 -10 25 0 51 -46 47 -84 -4 -42 -19 -49
-49 -26 -21 16 -25 18 -21 5 4 -8 15 -20 26 -26 15 -8 17 -13 8 -24 -9 -11
-17 -11 -36 -3 -30 14 -39 44 -25 93 11 40 7 61 -15 69 -8 3 -14 12 -14 21 0
8 -4 15 -10 15 -5 0 -10 5 -10 10 0 15 67 12 98 -4z m1461 -147 l29 -21 -20
-57 c-20 -60 -57 -101 -89 -101 -11 0 -22 7 -25 15 -7 18 36 114 60 134 9 7
16 18 16 24 0 19 -39 -25 -59 -67 -14 -26 -21 -34 -21 -21 0 21 60 115 73 115
4 0 21 -9 36 -21z m-1269 -169 c29 -71 -29 -116 -86 -66 -25 21 -29 31 -27 72
1 26 10 62 19 80 l18 33 32 -45 c17 -24 37 -57 44 -74z m521 70 c61 -17 64
-29 22 -100 -58 -97 -197 -210 -290 -234 l-51 -14 -6 43 c-7 46 -3 78 21 140
32 85 87 133 184 159 66 18 75 18 120 6z m235 -34 c49 -24 98 -54 109 -67 l20
-24 -21 18 c-39 33 -36 17 5 -28 22 -24 41 -49 41 -55 0 -6 4 -9 9 -6 7 4 31
-34 31 -49 0 -3 -13 -5 -28 -5 -32 0 -119 65 -224 168 -106 104 -88 119 58 48z
m374 16 c26 -21 23 -56 -11 -110 -21 -36 -87 -71 -130 -72 -22 0 -29 7 -43 43
-22 57 -21 58 22 99 59 59 120 74 162 40z m-468 -54 c21 -23 41 -53 45 -68 7
-30 22 -51 33 -45 4 3 37 -20 74 -49 36 -30 74 -57 85 -61 64 -20 9 -226 -78
-294 -72 -54 -87 -61 -106 -47 -16 11 -30 8 -99 -19 -44 -18 -85 -31 -91 -28
-5 2 -19 18 -30 36 -24 38 -80 68 -142 75 -39 4 -45 9 -59 40 -8 20 -26 50
-39 68 -30 40 -33 74 -6 74 10 0 48 15 85 33 39 20 60 27 51 17 -14 -15 -13
-20 7 -50 13 -18 30 -34 38 -36 8 -1 27 -5 43 -9 19 -5 27 -3 27 6 0 11 2 11
10 -1 8 -13 11 -13 22 -1 10 10 10 15 1 18 -7 2 -9 11 -6 19 3 8 -3 24 -13 36
-22 25 -81 51 -94 43 -6 -4 -10 -3 -10 2 0 12 67 63 84 63 8 0 24 16 36 35 12
19 23 35 24 35 1 0 0 -17 -2 -37 -5 -46 3 -41 22 13 l13 39 12 -45 c20 -74 25
-78 31 -25 4 28 8 40 8 27 2 -30 20 -62 34 -62 7 0 8 19 4 58 -5 52 -5 54 7
25 19 -48 30 -52 22 -8 -11 71 -15 85 -24 85 -5 0 -7 -10 -4 -22 4 -20 2 -19
-12 5 -22 37 -26 34 -20 -15 2 -24 2 -34 -1 -23 -12 43 -24 38 -25 -10 l-1
-50 -10 54 c-10 54 -10 54 -24 30 l-14 -24 6 28 c9 39 -1 33 -32 -18 -14 -25
-28 -44 -31 -41 -11 10 84 166 101 166 5 0 27 -19 48 -42z m-516 -17 c52 -24
55 -28 44 -77 -4 -21 -11 -56 -14 -76 -5 -27 -12 -38 -24 -38 -27 0 -138 56
-145 73 -8 20 12 98 31 120 19 22 56 21 108 -2z m-1282 -129 c99 -144 65 -320
-82 -413 -36 -22 -48 -26 -62 -17 -14 9 -35 5 -99 -19 -87 -33 -101 -31 -116
16 -7 24 -75 58 -133 67 -37 6 -45 11 -58 43 -8 20 -25 46 -37 59 -19 20 -22
35 -22 95 0 44 7 86 16 107 l16 35 -4 -50 c-5 -45 -4 -48 9 -30 8 11 28 53 44
92 16 40 32 73 35 73 10 0 19 -74 20 -160 1 -61 5 -79 22 -97 11 -13 25 -23
30 -23 5 0 16 -8 24 -17 8 -11 11 -12 7 -3 -7 13 -5 13 8 2 11 -9 18 -10 23
-2 3 5 15 10 27 10 14 0 18 5 14 15 -3 9 0 15 9 15 8 0 15 5 15 10 0 5 -3 9
-7 9 -21 -3 -33 3 -33 16 0 9 -20 24 -47 36 -39 17 -52 18 -67 9 -17 -10 -18
-10 -11 7 5 10 15 46 24 80 9 35 19 63 23 63 4 0 20 -27 35 -60 17 -36 33 -58
41 -55 6 2 12 -2 12 -9 0 -23 31 -76 45 -76 21 0 25 27 9 60 -12 23 -19 28
-29 20 -23 -19 -26 17 -6 68 24 61 44 65 71 12 12 -23 26 -40 32 -38 21 7 27
45 12 73 -13 25 -13 26 2 15 8 -8 22 -26 30 -42 8 -15 20 -28 28 -28 20 0 58
46 60 73 1 22 3 23 22 10 12 -8 33 -31 48 -51z m-554 -443 c-19 -4 -53 -10
-75 -13 -78 -9 -218 -37 -237 -47 -55 -30 -73 -127 -43 -239 8 -30 15 -56 15
-57 0 -2 -18 -3 -40 -3 -35 0 -40 3 -40 23 -1 12 -3 47 -6 77 -3 30 -2 84 1
120 6 59 11 69 46 102 38 36 42 37 121 40 202 7 293 6 258 -3z m2893 -471
c124 -93 227 -168 230 -168 4 0 18 20 33 45 32 55 40 53 19 -5 -21 -59 -19
-70 17 -107 l32 -33 -33 6 c-36 8 -37 7 -16 -51 6 -18 5 -18 -13 3 -27 30 -30
28 -35 -15 l-4 -38 -1 43 c-2 41 -14 55 -26 30 -6 -12 -4 5 10 77 5 29 3 31
-118 95 -202 107 -481 268 -503 290 l-20 21 37 35 38 34 64 -47 c35 -27 166
-123 289 -215z m-1966 -41 c126 -94 219 -157 230 -155 11 2 17 -2 15 -11 -1
-7 2 -19 9 -27 8 -10 6 -20 -10 -43 -12 -16 -21 -44 -22 -63 0 -27 -2 -30 -9
-13 -8 18 -9 17 -9 -8 -1 -34 22 -32 27 1 3 21 5 20 29 -8 13 -17 29 -30 34
-30 5 0 18 15 29 33 17 27 20 29 20 11 0 -12 7 -27 15 -34 13 -11 15 -8 14 21
0 28 -2 31 -9 14 -8 -18 -9 -17 -9 8 -1 33 -13 35 -35 5 -16 -21 -17 -21 -13
-3 3 11 8 29 13 39 7 17 4 18 -24 13 -39 -8 -40 2 -7 33 33 31 32 44 -7 64
-28 13 -29 16 -11 16 12 0 33 -4 47 -10 23 -8 34 -1 136 97 61 58 113 103 117
99 3 -3 12 -1 20 5 10 9 13 6 13 -17 0 -26 -15 -39 -120 -114 -66 -47 -120
-90 -120 -96 0 -6 7 -30 15 -53 8 -23 12 -48 9 -55 -3 -8 0 -17 7 -22 12 -7 9
35 -7 92 -5 17 13 34 105 102 l110 80 5 -61 c3 -34 8 -98 11 -142 9 -119 25
-246 36 -282 9 -27 17 -33 47 -39 20 -3 49 -9 63 -12 l27 -7 -26 -82 c-29 -97
-27 -103 51 -129 29 -9 54 -18 56 -20 1 -1 -16 -37 -40 -78 -29 -52 -49 -76
-62 -76 -10 0 -213 -50 -450 -111 -238 -61 -455 -116 -484 -124 l-52 -13 -39
102 c-21 55 -49 131 -62 167 l-22 65 30 31 c51 50 50 71 -2 168 -25 46 -66
116 -91 155 -25 39 -45 72 -45 74 0 2 17 2 39 -1 l38 -5 -37 200 c-36 199 -36
201 -18 236 l18 36 56 -46 c31 -25 63 -44 72 -42 15 3 56 54 64 80 3 7 47 -10
114 -45 228 -117 289 -153 286 -167 -10 -43 -14 -114 -6 -107 5 5 9 21 10 35
0 15 4 43 7 62 l7 35 -235 129 c-129 71 -235 131 -235 132 0 2 7 22 16 44 10
25 20 37 28 33 6 -4 106 -78 223 -166z m3643 -568 c0 -5 5 -9 11 -9 6 0 17 -6
24 -14 8 -8 28 -12 49 -9 22 2 36 -1 36 -7 0 -6 4 -8 10 -5 11 7 70 -22 85
-41 15 -19 85 -55 95 -49 4 3 6 -4 3 -15 -4 -15 0 -20 13 -20 18 -1 18 -1 1
-11 -18 -10 -18 -11 0 -31 18 -20 18 -20 24 18 6 36 6 35 8 -16 1 -52 0 -53
-15 -32 -15 22 -41 21 -28 0 5 -7 2 -9 -7 -6 -8 3 -21 -2 -29 -10 -13 -14 -12
-15 4 -9 12 5 16 3 13 -5 -5 -15 -23 -14 -86 2 -36 9 -48 8 -68 -5 -20 -13
-27 -14 -41 -4 -16 12 -16 11 0 -6 13 -14 20 -16 31 -7 15 12 51 12 63 -1 4
-4 14 -1 23 6 10 8 8 -1 -7 -26 -16 -29 -19 -43 -12 -62 7 -19 6 -23 -5 -19
-7 3 -11 13 -8 22 4 14 3 15 -5 2 -14 -19 -7 -30 60 -84 37 -30 58 -41 61 -33
3 6 6 2 6 -10 1 -12 -4 -25 -11 -29 -6 -4 -8 -3 -5 3 4 6 -17 28 -46 50 -66
49 -88 63 -65 38 16 -17 16 -19 0 -31 -13 -9 -14 -16 -6 -24 9 -9 8 -19 -3
-41 -8 -16 -11 -34 -7 -40 4 -7 3 -9 -3 -6 -6 4 -16 0 -23 -9 -7 -8 -20 -12
-29 -9 -19 7 -11 0 44 -42 64 -48 62 -48 89 4 14 26 25 44 26 40 0 -4 -9 -26
-21 -48 -11 -23 -18 -47 -15 -55 3 -8 1 -12 -4 -9 -5 3 -18 -12 -30 -35 -11
-22 -23 -40 -25 -40 -3 0 4 19 16 42 l21 42 -28 24 c-16 12 -42 30 -59 39 -29
15 -29 15 -15 -2 14 -17 13 -18 -2 -12 -13 4 -15 2 -11 -10 4 -10 2 -14 -4
-10 -5 3 -19 -4 -31 -16 -33 -35 -81 -70 -68 -49 3 6 -1 9 -11 8 -37 -6 -24
-35 31 -72 87 -57 66 -55 -27 3 -21 13 -43 21 -49 17 -7 -4 -8 -3 -4 4 4 7 3
12 -2 12 -15 0 -116 -142 -105 -149 5 -3 26 -16 46 -29 20 -13 37 -26 37 -29
0 -5 -26 10 -74 43 -17 12 -23 11 -40 -4 -20 -16 -20 -16 -6 2 14 17 12 21
-14 40 -42 31 -73 59 -56 50 8 -4 31 -20 52 -36 l36 -28 46 64 c55 77 61 92
45 102 -9 5 -10 2 -6 -9 3 -9 -1 -21 -11 -29 -8 -7 -13 -8 -10 -3 4 6 -16 10
-50 11 -125 3 -146 10 -137 49 3 11 2 14 -1 8 -8 -19 -27 -16 -20 3 3 8 2 13
-3 10 -5 -3 -11 4 -15 17 -3 12 -21 40 -41 61 -19 21 -35 42 -35 46 0 12 -39
19 -46 8 -3 -5 -16 0 -30 13 -23 21 -23 24 -8 47 14 22 14 25 -3 38 -11 8 -14
17 -8 21 6 5 17 17 25 27 14 18 13 19 -17 13 -20 -4 -35 -2 -39 5 -5 8 -1 9
11 4 15 -5 16 -4 5 9 -10 12 -9 20 4 40 23 35 44 41 61 19 8 -11 14 -14 15 -6
0 10 4 10 20 0 20 -13 21 -22 5 -60 -4 -10 -3 -18 3 -18 5 0 15 14 22 30 7 17
15 31 19 31 3 1 18 3 34 5 26 3 91 44 70 44 -6 0 -16 -7 -23 -15 -14 -17 -65
-21 -55 -5 4 6 11 8 16 5 5 -4 9 -1 9 5 0 6 14 29 31 50 28 34 54 49 99 56 8
1 34 5 58 9 37 7 42 5 42 -11 0 -16 2 -17 11 -4 8 11 12 12 16 2 2 -6 9 -10
14 -6 5 3 12 -2 15 -11 6 -13 8 -14 15 -3 14 21 11 28 -12 28 -18 0 -20 4 -14
29 6 26 2 32 -25 46 -18 9 -29 12 -26 6 9 -14 -30 -51 -54 -51 -11 0 -20 -4
-20 -10 0 -5 -7 -10 -15 -10 -17 0 -19 12 -5 26 7 7 8 19 1 37 -9 23 -7 28 10
38 12 6 49 10 83 8 84 -3 98 -1 93 14 -2 6 -13 11 -23 9 -18 -2 -18 -2 -1 8
20 13 80 3 72 -11 -4 -5 1 -6 10 -3 11 4 14 2 9 -9 -3 -8 0 -18 6 -22 8 -5 7
-11 -2 -23 -11 -15 -11 -15 2 -6 8 7 30 15 49 19 32 7 33 9 17 21 -17 12 -14
13 20 8 30 -4 35 -3 24 5 -8 6 -33 10 -55 9 -41 -1 -85 15 -85 33 0 5 -11 7
-27 3 -19 -5 -30 -2 -39 10 -12 17 -14 17 -31 -3 -9 -12 -22 -21 -28 -21 -5 0
-4 4 4 9 11 7 9 10 -9 16 -12 4 -18 10 -12 14 16 10 122 10 122 0z m-2353 -30
c101 -13 364 -101 349 -116 -2 -2 -42 7 -87 21 -169 51 -292 69 -464 70 -88 1
-182 -2 -210 -6 -40 -6 -45 -6 -25 3 80 34 292 48 437 28z m2828 -146 c102
-84 181 -208 226 -353 43 -138 29 -362 -29 -480 -14 -28 -33 -41 -109 -77
l-92 -42 35 48 c120 168 162 397 109 595 -34 130 -136 287 -235 362 -28 21
-50 40 -50 42 0 9 89 -49 145 -95z m-105 44 c107 -84 199 -226 236 -367 22
-87 23 -245 0 -330 -21 -82 -72 -190 -122 -258 -30 -41 -55 -62 -108 -88 -37
-20 -70 -33 -72 -31 -2 2 14 17 36 32 128 89 233 292 246 478 13 195 -57 380
-201 525 -45 45 -80 82 -76 82 3 -1 31 -20 61 -43z m-2931 -76 c-62 -91 -208
-271 -221 -271 -4 0 -8 6 -8 14 0 7 -9 25 -21 40 l-21 27 49 72 c27 40 66 100
87 134 l37 62 72 3 c40 2 74 2 76 1 2 -1 -21 -38 -50 -82z m-1820 -131 c18
-41 40 -86 50 -99 l18 -23 98 41 c55 22 100 39 100 38 1 -1 30 -55 64 -121 34
-65 68 -127 74 -137 6 -10 9 -20 7 -22 -3 -3 -124 -35 -270 -72 -146 -37 -273
-71 -283 -77 -21 -11 -37 5 -92 89 -19 28 -39 54 -44 58 -5 3 1 17 15 32 39
43 30 85 -33 154 -24 26 -24 28 -8 53 10 14 19 26 21 26 2 0 26 -9 54 -20 62
-25 96 -25 108 -2 8 13 59 237 63 270 0 4 6 -20 14 -53 7 -33 27 -94 44 -135z
m2191 170 c110 -28 100 -15 180 -209 41 -97 104 -246 142 -331 65 -148 70
-169 36 -170 -14 0 -208 321 -436 724 -2 4 4 6 14 3 11 -3 39 -11 64 -17z
m-1766 -268 c42 -106 74 -197 71 -203 -4 -5 -17 -9 -31 -9 -21 0 -35 21 -118
188 l-94 189 41 20 c23 12 45 18 48 14 3 -3 41 -93 83 -199z m2738 -444 l118
-52 -62 -33 c-34 -18 -80 -47 -101 -64 -33 -27 -43 -30 -75 -24 -44 8 -292
105 -292 114 0 3 44 21 98 40 53 18 113 42 132 52 19 10 42 18 49 19 8 0 68
-23 133 -52z m-3372 0 c14 -16 19 -33 18 -59 -2 -24 -7 -34 -13 -28 -16 16
-46 10 -84 -18 -45 -35 -85 -58 -77 -45 3 5 -7 12 -23 15 -36 7 -60 62 -38 84
16 16 154 72 179 73 10 0 26 -10 38 -22z m-203 -154 c69 -34 116 -131 93 -198
-14 -44 -44 -66 -90 -66 -44 0 -100 33 -100 59 0 11 -12 29 -26 40 -21 16 -28
32 -32 71 -4 44 -2 52 26 80 35 35 75 39 129 14z m3145 -26 l27 -10 -33 -43
c-31 -39 -96 -179 -96 -204 0 -15 -18 -14 -67 7 -56 22 -56 40 0 157 70 147
62 138 105 119 20 -9 49 -20 64 -26z m2418 33 c0 -5 -7 -17 -16 -25 -8 -9 -13
-20 -9 -25 3 -5 1 -12 -5 -16 -6 -4 -8 -11 -5 -16 4 -5 1 -9 -5 -9 -6 0 -9 -4
-6 -9 4 -5 -2 -29 -12 -53 -11 -23 -29 -72 -42 -108 -58 -166 -60 -171 -76
-156 -16 16 -19 36 -5 36 5 0 12 -8 14 -17 3 -12 6 -9 7 10 4 42 4 45 13 53
11 11 9 26 -3 19 -6 -3 -7 1 -4 9 3 9 9 14 13 11 4 -2 20 37 35 88 46 153 51
141 -40 106 -43 -17 -83 -34 -89 -39 -5 -4 -14 -8 -18 -8 -16 0 -67 -24 -63
-31 2 -3 -7 -7 -21 -7 -13 -1 -32 -9 -41 -17 -9 -8 -28 -14 -42 -12 -28 2 -70
-14 -70 -27 0 -4 -9 -8 -20 -8 -15 0 -20 -7 -20 -26 0 -23 -3 -25 -25 -20 -19
5 -25 2 -25 -9 0 -9 4 -14 8 -11 4 2 8 -4 8 -15 0 -12 -5 -18 -13 -15 -17 7
-17 -6 -1 -22 9 -9 10 -15 2 -20 -6 -4 -14 -14 -18 -22 -3 -8 -4 0 -1 18 5 35
-10 44 -20 12 -3 -11 -11 -20 -17 -20 -6 0 2 16 16 35 15 19 24 40 21 45 -4 6
-1 17 5 25 7 8 8 15 3 15 -15 0 -33 -23 -33 -42 0 -11 -7 -18 -20 -18 -12 0
-20 -7 -20 -17 0 -15 -2 -15 -9 -4 -10 15 8 41 28 41 6 0 11 4 11 10 0 5 -8 7
-17 4 -10 -2 36 23 102 55 66 33 126 58 133 56 7 -3 11 -1 8 4 -5 8 142 78
156 74 4 -2 8 2 8 8 0 5 5 7 10 4 6 -3 10 -2 10 3 0 5 15 15 33 22 17 7 62 28
99 46 36 18 69 30 72 27 3 -4 6 -1 6 5 0 7 2 12 5 12 3 0 5 -4 5 -9z m-5961
-197 c6 -15 10 -28 9 -29 -4 -4 -398 -55 -423 -55 -18 0 -18 2 6 25 25 25 58
33 319 78 62 11 77 7 89 -19z m5751 -31 c0 -14 -52 -168 -60 -176 -8 -9 -160
33 -160 44 0 4 9 11 21 14 11 4 49 29 84 55 88 67 115 81 115 63z"/>
<path d="M3740 2777 c-56 -69 -229 -118 -347 -97 -70 12 -123 34 -123 50 0 6
-8 5 -19 -2 -22 -13 -22 -13 108 -59 63 -22 91 -44 91 -71 0 -13 7 -18 28 -18
30 0 51 13 127 75 28 23 66 51 85 63 42 25 84 67 79 80 -2 5 -15 -5 -29 -21z"/>
<path d="M1749 2766 c-39 -52 -180 -106 -279 -106 -65 0 -161 24 -175 43 -11
15 -35 11 -35 -5 0 -6 3 -8 6 -5 4 4 19 0 33 -8 14 -8 52 -24 84 -36 49 -18
61 -27 73 -56 12 -28 18 -33 37 -28 30 10 63 31 122 80 28 23 66 51 86 63 42
25 72 57 68 70 -2 6 -11 0 -20 -12z"/>
<path d="M855 405 c-29 -28 -32 -63 -9 -110 22 -47 44 -64 98 -74 26 -5 45 -6
42 -3 -7 7 14 33 23 28 3 -2 7 15 9 37 3 51 -24 99 -70 127 -43 26 -64 25 -93
-5z"/>
<path d="M6800 1980 c0 -13 6 -28 14 -34 12 -9 11 -30 -9 -141 -23 -128 -27
-139 -27 -60 0 26 -4 12 -13 -40 -18 -109 -18 -135 0 -135 8 0 15 -8 15 -17 0
-14 -50 -284 -115 -628 -2 -11 -9 -60 -15 -110 -6 -49 -31 -214 -55 -365 -25
-151 -50 -306 -56 -345 -6 -38 -13 -78 -15 -87 -5 -15 2 -18 40 -18 39 0 46 3
51 23 2 12 13 67 24 122 54 270 72 369 67 382 -3 7 -2 13 3 13 4 0 18 53 30
118 12 64 25 127 28 140 4 16 1 22 -10 22 -37 0 -31 60 6 61 l22 0 -22 11
c-31 15 -29 28 5 29 26 0 26 1 5 9 -18 7 -22 15 -18 37 3 15 12 66 20 113 50
273 85 464 85 467 0 7 57 2 94 -8 31 -8 41 -8 47 3 15 23 10 32 -8 16 -23 -20
-51 -9 -47 17 1 11 9 60 18 108 9 49 13 93 10 99 -5 7 -2 8 6 3 10 -6 12 -4 7
8 -3 9 -2 19 2 21 5 3 11 28 15 56 8 60 8 61 -1 58 -4 -2 -7 -14 -5 -28 2 -23
1 -23 -8 -5 -9 16 -9 15 -5 -10 4 -19 2 -25 -3 -17 -6 9 -11 -3 -16 -37 -4
-28 -11 -61 -16 -74 -7 -17 -9 -12 -9 29 -1 27 4 55 10 61 14 14 19 65 6 81
-7 9 -6 11 8 6 13 -5 16 -4 11 5 -5 8 1 10 23 6 17 -3 31 -1 31 4 0 5 -42 16
-92 26 -51 9 -103 19 -115 22 -19 4 -23 1 -23 -17z"/>
<path d="M8286 1782 c6 -4 50 -71 98 -150 52 -85 92 -140 98 -136 7 4 8 2 4
-5 -4 -7 14 -41 45 -82 41 -56 54 -68 61 -55 6 10 1 31 -15 63 -35 70 -65 162
-73 224 -9 73 3 58 61 -81 52 -125 53 -126 60 -118 3 2 -3 28 -13 57 -10 29
-20 50 -23 47 -2 -3 -4 13 -4 34 0 21 4 36 9 33 5 -4 7 1 3 11 -4 10 -7 20 -7
22 0 2 -5 4 -11 4 -8 0 -9 -16 -5 -47 6 -52 5 -50 -39 51 -20 46 -28 57 -37
48 -9 -9 -9 -28 -1 -79 7 -37 11 -69 9 -70 -2 -2 -23 39 -46 92 -70 152 -81
112 -15 -52 18 -46 32 -83 30 -83 -2 0 -42 63 -90 140 -47 77 -92 140 -98 140
-9 0 -9 -2 -1 -8z"/>
<path d="M8170 1721 c0 -16 97 -156 149 -215 29 -32 50 -61 47 -63 -7 -7 -146
118 -209 187 -27 30 -45 46 -39 35 16 -31 155 -191 245 -282 45 -46 78 -83 74
-83 -13 0 -208 135 -302 209 -49 39 -91 68 -93 66 -8 -7 71 -91 146 -156 114
-98 76 -81 -54 25 -113 92 -144 110 -144 84 0 -6 80 -92 179 -190 98 -98 176
-178 174 -178 -13 0 -229 173 -385 308 -11 9 -18 10 -18 4 0 -17 154 -175 257
-264 52 -44 92 -83 89 -85 -5 -6 -101 58 -176 118 -93 75 -214 159 -228 159
-25 0 10 -43 117 -147 58 -57 103 -103 99 -103 -4 0 -58 41 -120 91 -128 102
-148 115 -148 98 0 -7 59 -72 132 -146 73 -73 128 -133 123 -133 -11 1 -150
108 -265 204 -39 32 -72 57 -74 55 -5 -5 95 -89 228 -192 101 -78 154 -112
162 -104 3 2 -59 67 -136 143 -77 76 -140 142 -140 146 0 6 87 -60 321 -246
82 -65 70 -29 -16 47 -116 104 -280 265 -275 270 5 5 109 -69 275 -194 48 -37
105 -76 126 -88 66 -37 48 1 -33 70 -96 81 -231 210 -226 214 2 2 55 -38 117
-90 132 -110 218 -171 228 -162 3 4 -78 90 -180 192 -103 102 -187 190 -187
196 0 6 57 -36 128 -93 70 -57 153 -125 185 -151 62 -50 117 -83 117 -69 0 5
-69 68 -152 139 -84 72 -164 144 -178 159 -29 33 -13 22 65 -42 63 -52 278
-194 295 -194 6 0 -36 50 -94 112 -58 61 -103 114 -101 117 3 2 22 -11 43 -30
20 -19 66 -59 102 -89 36 -30 67 -58 68 -62 2 -5 8 -8 13 -8 6 0 -39 53 -98
118 -107 117 -216 263 -216 289 0 7 -4 13 -9 13 -4 0 -8 -4 -8 -9z"/>
<path d="M7264 1362 c-166 -92 -232 -207 -184 -321 l23 -51 -53 -144 -52 -144
-98 -46 -98 -46 -11 -48 c-5 -26 -16 -75 -24 -109 l-15 -61 55 -21 c30 -12 58
-21 62 -21 5 0 16 29 26 65 9 36 22 65 27 65 6 0 8 -6 5 -13 -2 -7 -26 -80
-52 -162 -26 -83 -58 -184 -71 -225 -13 -41 -24 -76 -24 -77 0 -2 16 -3 36 -3
21 0 33 4 29 10 -3 5 -1 10 5 10 7 0 9 7 6 16 -4 10 -2 13 6 8 7 -5 9 -2 5 8
-3 9 -1 20 4 25 14 14 60 153 54 163 -3 4 -1 10 5 12 5 1 25 48 44 103 29 85
32 102 21 115 -16 17 -4 47 14 36 6 -4 11 -3 11 3 0 5 -6 12 -12 14 -7 3 -4 6
7 6 16 1 17 3 6 10 -12 7 -6 34 34 148 92 264 107 303 119 303 6 0 21 -7 33
-15 17 -12 28 -13 50 -4 65 24 103 86 103 166 l0 48 133 -130 c72 -72 150
-146 172 -165 23 -19 -27 31 -110 112 -82 81 -146 147 -142 148 4 0 67 -55
140 -121 143 -132 274 -236 284 -225 3 3 4 7 2 9 -88 60 -345 295 -334 305 4
4 17 -5 28 -19 40 -48 128 -120 139 -113 6 4 8 3 5 -3 -4 -6 26 -37 66 -69
107 -85 100 -81 104 -67 3 8 22 -1 54 -23 27 -20 49 -31 49 -26 0 17 -94 92
-108 87 -7 -3 -11 -1 -8 4 6 9 -85 91 -100 91 -5 0 14 -21 41 -46 l50 -46 -62
49 c-34 26 -62 52 -62 57 -1 5 7 3 17 -5 9 -7 -28 33 -83 89 -111 113 -120
138 -15 38 115 -108 302 -246 335 -246 18 0 -6 27 -86 95 -49 42 -88 80 -85
82 3 3 27 -12 53 -34 60 -51 164 -123 175 -123 19 0 -16 42 -75 91 -127 104
-237 202 -232 207 2 3 42 -27 88 -65 108 -92 267 -213 278 -213 23 0 2 23 -78
91 -123 102 -305 271 -299 277 3 3 34 -20 68 -50 122 -105 159 -131 169 -121
6 6 -23 38 -85 92 -85 73 -129 121 -110 121 3 0 1 7 -6 15 -14 17 -30 20 -30
5 0 -5 33 -45 73 -87 78 -83 69 -81 -39 10 -121 102 -84 39 57 -97 74 -71 129
-127 122 -125 -6 2 -75 57 -152 121 -78 65 -141 112 -141 105 0 -18 173 -184
283 -271 54 -43 96 -80 93 -83 -9 -9 -240 174 -356 282 -62 58 -116 103 -118
100 -11 -11 320 -329 407 -392 2 -2 2 -5 -1 -8 -9 -9 -171 114 -306 233 -140
124 -169 144 -132 94 13 -17 27 -29 31 -26 4 2 11 -1 15 -7 4 -8 3 -9 -4 -5
-28 17 -7 -13 43 -64 30 -30 52 -57 49 -60 -3 -3 -35 25 -70 63 -35 37 -67 67
-71 67 -4 0 35 -44 87 -97 106 -108 95 -106 -21 3 -76 71 -119 103 -119 86 0
-4 16 -23 35 -42 19 -19 35 -38 35 -43 0 -14 -159 135 -166 157 -4 11 -15 28
-25 39 -18 20 -13 53 13 84 16 20 -3 15 -58 -15z"/>
<path d="M403 1092 c-17 -11 -19 -34 -9 -123 l8 -77 -63 -78 c-34 -44 -71 -99
-82 -124 -11 -25 -28 -57 -39 -72 l-19 -27 82 -61 c116 -86 116 -86 123 -46 4
20 30 60 66 102 57 66 71 99 50 120 -12 12 -1 54 14 54 7 0 17 -5 23 -11 8 -8
27 18 69 93 90 158 90 155 50 172 -19 8 -37 19 -40 25 -11 17 -26 13 -19 -5 5
-14 3 -15 -17 -4 -16 9 -25 9 -33 1 -9 -9 -16 -6 -28 10 -9 12 -28 22 -46 23
-16 1 -37 9 -47 19 -19 19 -25 20 -43 9z"/>
<path d="M7203 803 c-31 -16 -36 -27 -92 -197 -33 -100 -71 -211 -85 -248
l-25 -66 102 -41 c56 -23 108 -45 114 -49 11 -7 35 -192 25 -192 -2 0 -69 29
-149 65 -80 36 -148 63 -151 60 -10 -10 11 -22 141 -79 l128 -56 105 0 104 0
-1 28 c0 15 -4 51 -8 80 -5 38 -4 55 5 63 16 13 20 -3 29 -103 l7 -68 84 0 84
0 0 34 c0 19 4 38 10 41 6 4 7 -1 3 -11 -4 -12 -3 -15 5 -10 7 4 12 16 12 26
0 10 7 26 16 34 8 9 12 16 7 16 -5 0 -16 -9 -26 -20 -9 -11 -21 -20 -26 -20
-4 0 -13 42 -19 93 -9 82 -9 93 6 105 11 8 16 24 14 42 -3 26 0 30 21 30 14 0
27 -3 30 -7 2 -5 3 -3 1 3 -1 6 2 16 7 21 5 5 -5 7 -26 5 -41 -5 -42 -3 -24
125 9 61 15 80 25 76 10 -4 14 3 14 23 0 57 -12 104 -27 104 -8 0 -99 25 -204
55 -104 30 -193 55 -197 54 -4 0 -22 -8 -39 -16z m328 -291 c51 -137 56 -158
38 -147 -5 4 -22 2 -37 -4 -20 -8 -28 -20 -30 -39 -1 -21 0 -24 8 -12 8 13 10
12 10 -2 0 -10 -7 -18 -16 -18 -12 0 -15 8 -13 34 4 43 -3 51 -30 34 -38 -23
-44 -1 -31 104 12 93 13 95 37 90 26 -5 26 -6 2 88 -12 47 -10 72 3 35 6 -16
33 -90 59 -163z m-201 -15 c55 -150 57 -162 35 -153 -9 3 -24 0 -35 -6 -14 -9
-22 -9 -33 1 -10 8 -17 9 -22 1 -3 -5 -17 -10 -31 -10 -28 0 -28 1 -13 121 10
79 13 87 29 79 26 -14 29 -5 14 63 -25 119 -18 105 56 -96z"/>
<path d="M592 712 c-23 -20 -65 -73 -92 -117 -41 -65 -49 -86 -45 -112 3 -20
-1 -37 -10 -46 -11 -11 -11 -16 -2 -20 6 -2 72 38 145 90 106 77 132 100 132
119 0 25 -14 32 -25 14 -4 -6 -10 -8 -15 -5 -5 3 -17 -5 -27 -18 -10 -13 -24
-22 -32 -19 -9 3 -11 0 -6 -8 5 -9 4 -11 -3 -6 -7 4 -12 3 -12 -2 0 -9 -70
-56 -77 -53 -2 0 -12 -8 -23 -19 -20 -20 -46 -28 -36 -11 4 5 55 44 114 87 59
43 109 79 111 81 2 1 -3 11 -12 21 -10 10 -17 23 -17 29 0 6 -6 15 -13 21 -10
8 -23 2 -55 -26z"/>
<path d="M7680 684 c0 -21 102 -284 110 -284 19 0 30 34 41 133 7 59 10 109 7
113 -4 3 -40 16 -82 29 -61 19 -76 21 -76 9z"/>
<path d="M9042 573 c-2 -40 -5 -51 -16 -47 -9 4 -12 -2 -10 -18 2 -13 13 -113
24 -223 11 -110 23 -219 26 -243 l6 -42 85 0 84 0 -5 33 c-3 17 -15 120 -26
227 -11 107 -22 214 -26 237 l-5 43 -64 -4 -64 -5 -4 47 -3 47 -2 -52z"/>
<path d="M9242 588 c-1 -20 -8 -38 -15 -40 -10 -2 -7 -54 15 -253 15 -137 27
-260 28 -272 0 -22 4 -23 85 -23 47 0 85 1 85 3 0 10 -51 481 -56 515 -5 36
-10 42 -30 42 -12 0 -26 -4 -29 -10 -3 -5 0 -7 7 -5 10 4 17 -35 31 -177 9
-100 15 -184 12 -186 -3 -3 -5 8 -5 24 0 16 -5 36 -10 44 -7 11 -10 1 -11 -35
-1 -27 -5 -63 -9 -80 -5 -19 -7 -1 -5 50 3 57 2 67 -3 35 -7 -42 -8 -38 -17
50 -5 52 -10 123 -9 157 0 35 -4 57 -8 50 -5 -7 -8 -2 -8 15 0 14 -3 34 -6 42
-5 12 -2 15 12 10 16 -5 16 -4 4 5 -8 6 -23 8 -32 5 -13 -4 -18 3 -21 33 l-4
38 -1 -37z"/>
<path d="M8842 558 c-2 -47 -5 -56 -17 -52 -10 4 -14 2 -10 -7 4 -12 55 -463
55 -489 0 -6 14 -10 31 -10 30 0 30 1 25 42 -19 140 -47 436 -43 455 3 19 1
22 -14 18 -15 -5 -18 1 -22 47 l-3 53 -2 -57z"/>
<path d="M9448 573 c-16 -2 -28 -9 -28 -16 0 -19 50 -490 55 -524 5 -29 10
-33 37 -33 l30 0 -7 68 c-3 37 -17 164 -30 282 -18 163 -21 216 -12 222 13 8
4 8 -45 1z"/>
<path d="M8248 443 c-34 -5 -33 11 -6 -240 l21 -203 33 0 c31 0 33 2 28 32
-17 131 -43 401 -38 409 3 5 2 8 -3 8 -4 -1 -20 -4 -35 -6z"/>
<path d="M8033 424 c-7 -7 -13 -29 -13 -48 0 -22 -6 -39 -17 -46 -16 -10 -16
-10 3 -5 20 5 22 0 33 -117 22 -220 19 -208 58 -208 28 0 33 3 29 18 -2 9 -8
49 -11 87 -8 93 -24 242 -31 283 -4 25 -2 32 7 26 8 -5 10 -3 5 5 -5 7 -15 10
-24 6 -8 -3 -18 -2 -21 4 -3 5 -12 3 -18 -5z"/>
<path d="M1126 369 c-37 -29 -47 -59 -35 -103 12 -43 42 -66 87 -66 44 0 68
14 88 51 20 40 11 82 -28 114 -36 31 -76 32 -112 4z"/>
<path d="M3012 122 c-51 -61 -92 -113 -92 -116 0 -3 36 -6 80 -6 79 0 80 0 69
21 -8 16 -8 20 1 14 7 -4 10 -2 9 6 -4 21 33 89 44 82 6 -3 7 -1 3 6 -4 6 2
27 14 47 25 39 25 40 -10 49 -23 5 -35 -5 -118 -103z"/>
<path d="M1131 166 c-51 -28 -65 -95 -30 -140 18 -22 28 -26 74 -26 46 0 56 4
74 26 38 48 24 111 -29 139 -35 18 -57 19 -89 1z"/>
</g>
</svg>
