<svg height="512pt" viewBox="-32 0 512 512" width="512pt" xmlns="http://www.w3.org/2000/svg"><path d="m376 504h-304c-8.839844 0-16-7.160156-16-16v-464c0-8.839844 7.160156-16 16-16h304c8.839844 0 16 7.160156 16 16v464c0 8.839844-7.160156 16-16 16zm0 0" fill="#9bc53d"/><path d="m88 56h272v368h-272zm0 0" fill="#c5d998"/><path d="m376 512h-304c-13.230469 0-24-10.769531-24-24v-96h16v96c0 4.40625 3.59375 8 8 8h304c4.414062 0 8-3.59375 8-8v-96h16v96c0 13.230469-10.769531 24-24 24zm0 0"/><path d="m400 80h-16v-56c0-4.40625-3.585938-8-8-8h-304c-4.40625 0-8 3.59375-8 8v56h-16v-56c0-13.230469 10.769531-24 24-24h304c13.230469 0 24 10.769531 24 24zm0 0"/><path d="m360 424h-272c-4.414062 0-8-3.585938-8-8v-24h16v16h256v-16h16v24c0 4.414062-3.574219 8-8 8zm0 0"/><path d="m96 80h-16v-32c0-4.414062 3.585938-8 8-8h272c4.425781 0 8 3.585938 8 8v32h-16v-24h-256zm0 0"/><path d="m240 464c0 8.835938-7.164062 16-16 16s-16-7.164062-16-16 7.164062-16 16-16 16 7.164062 16 16zm0 0" fill="#fff"/><path d="m224 488c-13.230469 0-24-10.769531-24-24s10.769531-24 24-24 24 10.769531 24 24-10.769531 24-24 24zm0-32c-4.40625 0-8 3.59375-8 8s3.59375 8 8 8 8-3.59375 8-8-3.59375-8-8-8zm0 0"/><path d="m440 368h-174l-42 16-44.664062-16h-171.335938v-32h432zm0 0" fill="#fce0b0"/><path d="m224 384v-240c0-22.089844-17.910156-40-40-40h-176v232h176c22.089844 0 40 17.910156 40 40z" fill="#fcc365"/><path d="m224 384v-240c0-22.089844 17.910156-40 40-40h176v232h-176c-22.089844 0-40 17.910156-40 40z" fill="#fcb641"/><path d="m232 376h-16c0-26.472656 21.527344-48 48-48h120v16h-120c-17.648438 0-32 14.351562-32 32zm0 0"/><path d="m408 168-24-16-24 16v-64h48zm0 0" fill="#e65039"/><path d="m400 328v16h40c4.425781 0 8-3.585938 8-8v-232c0-4.414062-3.574219-8-8-8h-184c-14.3125 0-26.800781 7.625-33.871094 18.960938-8.777344-11.496094-22.578125-18.960938-38.128906-18.960938h-176c-4.414062 0-8 3.585938-8 8v232c0 4.414062 3.585938 8 8 8h176c15.390625 0 28.273438 10.9375 31.3125 25.441406-12.234375-6.167968-25.695312-9.441406-39.535156-9.441406h-159.777344v-8h-16v16c0 4.414062 3.585938 8 8 8h167.777344c14.261718 0 28.070312 4.183594 39.941406 12.097656l3.847656 2.558594c.273438.183594.585938.265625.875.40625.261719.136719.503906.265625.78125.371094.90625.34375 1.832032.566406 2.777344.566406s1.871094-.222656 2.777344-.558594c.277344-.105468.519531-.242187.78125-.371094.289062-.140624.601562-.230468.875-.40625l3.855468-2.566406c11.863282-7.914062 25.664063-12.097656 39.925782-12.097656h167.785156c4.425781 0 8-3.585938 8-8v-16h-16v8h-159.785156c-14.09375 0-27.816406 3.398438-40.214844 9.792969v-233.792969c0-13.230469 10.769531-24 24-24h96v56c0 2.953125 1.625 5.664062 4.222656 7.054688 2.59375 1.394531 5.761719 1.234374 8.210938-.398438l19.566406-13.039062 19.558594 13.039062c1.335937.894531 2.890625 1.34375 4.441406 1.34375 1.296875 0 2.59375-.3125 3.777344-.945312 2.597656-1.390626 4.222656-4.101563 4.222656-7.054688v-56h16v216zm-216 0h-168v-216h168c17.648438 0 32 14.351562 32 32v196.257812c-8.496094-7.617187-19.71875-12.257812-32-12.257812zm216-174.953125-11.558594-7.703125c-1.34375-.894531-2.898437-1.34375-4.441406-1.34375s-3.097656.449219-4.441406 1.34375l-11.558594 7.703125v-41.046875h32zm0 0"/><path d="m40 136h144v80h-144zm0 0" fill="#e65039"/><path d="m184 224h-144c-4.414062 0-8-3.585938-8-8v-80c0-4.414062 3.585938-8 8-8h144c4.414062 0 8 3.585938 8 8v80c0 4.414062-3.585938 8-8 8zm-136-16h128v-64h-128zm0 0"/><path d="m32 248h96v16h-96zm0 0"/><path d="m144 248h48v16h-48zm0 0"/><path d="m32 280h64v16h-64zm0 0"/><path d="m112 280h80v16h-80zm0 0"/><path d="m256 128h64v16h-64zm0 0"/><path d="m256 160h80v16h-80zm0 0"/><path d="m256 192h48v16h-48zm0 0"/><path d="m320 192h96v16h-96zm0 0"/><path d="m368 224h48v16h-48zm0 0"/><path d="m256 224h96v16h-96zm0 0"/><path d="m256 256h48v16h-48zm0 0"/><path d="m320 256h96v16h-96zm0 0"/><path d="m368 288h48v16h-48zm0 0"/><path d="m256 288h96v16h-96zm0 0"/></svg>